<svg width="101" height="40" viewBox="0 0 101 40" fill="none" xmlns="http://www.w3.org/2000/svg">
<g clip-path="url(#clip0_1_11)">
<mask id="mask0_1_11" style="mask-type:luminance" maskUnits="userSpaceOnUse" x="0" y="0" width="40" height="40">
<path d="M40 0H0V40H40V0Z" fill="white"/>
</mask>
<g mask="url(#mask0_1_11)">
<path d="M40 20C40 8.9543 31.0457 0 20 0C8.9543 0 0 8.9543 0 20C0 31.0457 8.9543 40 20 40C31.0457 40 40 31.0457 40 20Z" fill="#3900AD"/>
<path d="M14.1301 12.0623H13.4635C12.1983 12.0623 11.5072 12.7756 11.5072 14.2026V21.0849C11.5072 22.8567 10.9087 23.4786 9.50458 23.4786C8.40014 23.4786 7.50273 22.9949 6.78903 22.1204C6.71977 22.0286 5.27051 22.7186 5.27051 24.4223C5.27051 26.2634 6.99569 27.3915 10.1964 27.3915C14.0853 27.3915 16.135 25.4349 16.135 21.1541V14.2026C16.1327 12.7775 15.4424 12.0623 14.1301 12.0623ZM29.6301 15.4226C25.855 15.4226 23.3464 17.8163 23.3464 21.3856C23.3464 25.0456 25.7624 27.3938 29.5605 27.3938C33.3346 27.3938 35.8198 25.0456 35.8198 21.4093C35.822 17.8163 33.3587 15.4226 29.6301 15.4226ZM29.5838 24.0075C28.1101 24.0075 27.0979 22.926 27.0979 21.3838C27.0979 19.8652 28.135 18.783 29.5838 18.783C31.0327 18.783 32.0694 19.8652 32.0694 21.4071C32.0698 22.9026 31.0109 24.0075 29.5838 24.0075ZM20.1568 15.5375H19.6957C18.5687 15.5375 17.7172 16.0663 17.7172 17.6782V25.0434C17.7172 26.6778 18.5461 27.1845 19.7424 27.1845H20.2031C21.3309 27.1845 22.1361 26.6315 22.1361 25.0434V17.6782C22.1361 16.0212 21.3542 15.5375 20.1568 15.5375ZM19.9038 10.1986C18.4764 10.1986 17.579 11.0045 17.579 12.2704C17.579 13.5586 18.5001 14.3641 19.9727 14.3641C21.3998 14.3641 22.2976 13.5586 22.2976 12.2704C22.2976 10.9823 21.3768 10.1986 19.9038 10.1986Z" fill="white"/>
</g>
</g>
<path d="M53.56 28.336C52.118 28.336 50.928 28.112 49.99 27.664C49.052 27.202 48.352 26.537 47.89 25.669C47.442 24.801 47.218 23.737 47.218 22.477V13.489H50.83V22.246C50.83 22.946 50.921 23.527 51.103 23.989C51.299 24.437 51.593 24.78 51.985 25.018C52.391 25.256 52.916 25.375 53.56 25.375C54.204 25.375 54.722 25.27 55.114 25.06C55.52 24.836 55.814 24.5 55.996 24.052C56.192 23.59 56.29 22.995 56.29 22.267V13.489H59.902V22.498C59.902 23.758 59.671 24.829 59.209 25.711C58.747 26.579 58.04 27.237 57.088 27.685C56.15 28.119 54.974 28.336 53.56 28.336ZM65.6083 20.335L60.8623 13.489H65.1043L67.7923 17.983L70.4803 13.489H74.4913L69.8083 20.377L74.9323 28H70.6063L67.6243 23.128L64.5583 28H60.4423L65.6083 20.335ZM87.1354 28.336C85.6934 28.336 84.5034 28.112 83.5654 27.664C82.6274 27.202 81.9274 26.537 81.4654 25.669C81.0174 24.801 80.7934 23.737 80.7934 22.477V13.489H84.4054V22.246C84.4054 22.946 84.4964 23.527 84.6784 23.989C84.8744 24.437 85.1684 24.78 85.5604 25.018C85.9664 25.256 86.4914 25.375 87.1354 25.375C87.7794 25.375 88.2974 25.27 88.6894 25.06C89.0954 24.836 89.3894 24.5 89.5714 24.052C89.7674 23.59 89.8654 22.995 89.8654 22.267V13.489H93.4774V22.498C93.4774 23.758 93.2464 24.829 92.7844 25.711C92.3224 26.579 91.6154 27.237 90.6634 27.685C89.7254 28.119 88.5494 28.336 87.1354 28.336ZM95.4876 13.489H99.0997V28H95.4876V13.489Z" fill="black"/>
<defs>
<clipPath id="clip0_1_11">
<rect width="40" height="40" fill="white"/>
</clipPath>
</defs>
</svg>
